HIERARCHY
ROOT Hips
{
  OFFSET 43.0842 91.1655 101.099
  CHANNELS 6 Xposition Yposition Zposition Zrotation Xrotation Yrotation
  JOINT LeftUpLeg
  {
    OFFSET 8.64259 1.95398 -2.38835
    CHANNELS 3 Zrotation Xrotation Yrotation
    JOINT LeftLeg
    {
      OFFSET 43.7702 0 0
      CHANNELS 3 Zrotation Xrotation Yrotation
      JOINT LeftFoot
      {
        OFFSET 40.6238 0 0
        CHANNELS 3 Zrotation Xrotation Yrotation
        JOINT LeftToeBase
        {
          OFFSET 12.7242 0 0
          CHANNELS 3 Zrotation Xrotation Yrotation
          End Site
          {
            OFFSET 0 0 0
          }
        }
      }
    }
  }
  JOINT RightUpLeg
  {
    OFFSET -8.2249 1.95398 -2.59336
    CHANNELS 3 Zrotation Xrotation Yrotation
    JOINT RightLeg
    {
      OFFSET 43.5653 0 0
      CHANNELS 3 Zrotation Xrotation Yrotation
      JOINT RightFoot
      {
        OFFSET 40.6238 0 0
        CHANNELS 3 Zrotation Xrotation Yrotation
        JOINT RightToeBase
        {
          OFFSET 12.7242 0 0
          CHANNELS 3 Zrotation Xrotation Yrotation
          End Site
          {
            OFFSET 0 0 0
          }
        }
      }
    }
  }
  JOINT Spine
  {
    OFFSET 0.165834 0.87714 6.61349
    CHANNELS 3 Zrotation Xrotation Yrotation
    JOINT Spine1
    {
      OFFSET 7.38963 1.71661e-005 0
      CHANNELS 3 Zrotation Xrotation Yrotation
      JOINT Spine2
      {
        OFFSET 11.9445 1.14441e-005 0
        CHANNELS 3 Zrotation Xrotation Yrotation
        JOINT Spine3
        {
          OFFSET 14.7254 4.19617e-005 0
          CHANNELS 3 Zrotation Xrotation Yrotation
          JOINT Spine4
          {
            OFFSET 10.9679 0 0
            CHANNELS 3 Zrotation Xrotation Yrotation
            JOINT RightShoulder
            {
              OFFSET 2.46616 -1.6653 3.69651
              CHANNELS 3 Zrotation Xrotation Yrotation
              JOINT RightArm
              {
                OFFSET 13.0012 0 0
                CHANNELS 3 Zrotation Xrotation Yrotation
                JOINT RightForeArm
                {
                  OFFSET 28.7848 1.52588e-005 0
                  CHANNELS 3 Zrotation Xrotation Yrotation
                  JOINT RightHand
                  {
                    OFFSET 26.5688 1.52588e-005 0
                    CHANNELS 3 Zrotation Xrotation Yrotation
                    End Site
                    {
                      OFFSET 0 0 0
                    }
                  }
                }
              }
            }
            JOINT LeftShoulder
            {
              OFFSET 2.38034 -1.29275 -3.7523
              CHANNELS 3 Zrotation Xrotation Yrotation
              JOINT LeftArm
              {
                OFFSET 16.3182 6.10351e-005 0
                CHANNELS 3 Zrotation Xrotation Yrotation
                JOINT LeftForeArm
                {
                  OFFSET 27.0901 0 0
                  CHANNELS 3 Zrotation Xrotation Yrotation
                  JOINT LeftHand
                  {
                    OFFSET 24.5451 1.52588e-005 0
                    CHANNELS 3 Zrotation Xrotation Yrotation
                    End Site
                    {
                      OFFSET 0 0 0
                    }
                  }
                }
              }
            }
            JOINT Neck
            {
              OFFSET 5.0226 -0.0266342 0
              CHANNELS 3 Zrotation Xrotation Yrotation
              JOINT Head
              {
                OFFSET 6.69364 2.86102e-005 0
                CHANNELS 3 Zrotation Xrotation Yrotation
                End Site
                {
                  OFFSET 0 0 0
                }
              }
            }
          }
        }
      }
    }
  }
}
MOTION
Frames:	17
Frame Time:	0.0333333
64.8336 88.3297 4.5435 -95.1961 -41.4352 -97.2407 -172.407 23.4469 100.801 -34.6213 15.1118 -6.18595 62.6643 -4.6401 9.7264 30.083 0.423982 2.07087 -177.127 1.97939 79.6661 68.1198 68.4195 -67.0923 97.8202 -9.89609 -69.0345 80.0672 -42.4284 -57.6382 0.153704 7.30669 -89.7761 12.2597 0.411675 0.400738 0.58872 0.428906 0.38222 -21.9462 0.27221 0.505938 -1.93356 0.272195 0.505923 95.0253 -43.7834 -94.0132 6.05407 -32.1491 -64.5791 -6.20843 -6.16985 -109.476 -11.1854 -1.59307 8.29008 -110.289 -60.6555 54.3522 23.4465 -43.785 -18.7946 6.28194 0.986755 -64.4606 22.2723 2.71048 -7.33206 -15.864 16.0319 12.6862 -5.63 15.9824 14.3393 
64.8191 88.3285 4.56125 -95.1288 -41.4214 -97.2091 -172.403 23.4943 100.779 -34.6395 14.9701 -6.17094 62.6137 -4.71616 9.71526 30.1833 0.599487 2.00338 -177.172 2.04513 79.6124 67.9773 68.4436 -66.9279 97.7961 -9.88029 -69.0082 79.9399 -42.3257 -57.7547 0.126267 7.30636 -89.7231 12.26 0.382177 0.509778 0.589064 0.404276 0.492451 -21.9455 0.211324 0.601071 -1.93282 0.211327 0.601065 94.8092 -44.5492 -94.2488 5.57291 -32.0622 -64.7189 -6.27729 -6.08615 -109.591 -11.7134 -1.7625 8.7329 -109.297 -60.2199 55.4229 23.1982 -43.8704 -18.8444 6.12605 1.07613 -64.6144 22.3618 2.7174 -7.36954 -15.7702 16.1814 12.4813 -5.49387 16.1385 14.191 
64.796 88.323 4.59749 -95.1168 -41.3647 -97.1963 -172.395 23.4818 100.777 -34.6801 14.7214 -6.16598 62.6826 -4.6573 9.85447 30.2274 0.689872 1.95175 -177.142 2.15119 79.6483 67.8836 68.3551 -67.0369 97.7676 -9.79752 -68.9954 79.7508 -42.2203 -58.0383 0.152229 7.29365 -89.7714 12.2857 0.410949 0.410231 0.61475 0.428648 0.391732 -21.9202 0.268654 0.514762 -1.9075 0.268691 0.514775 95.0415 -44.0349 -93.9455 5.7478 -32.2323 -64.5778 -6.38435 -6.02917 -109.514 -12.0533 -1.87637 8.92028 -109.965 -60.5055 54.6923 23.1113 -44.4082 -18.9889 5.93774 1.81208 -64.6721 21.3539 2.63496 -6.79483 -15.9296 16.0117 12.5109 -5.60735 15.9717 14.4663 
64.7472 88.3127 4.64643 -95.1518 -41.3724 -97.204 -172.396 23.4501 100.79 -34.7769 14.9469 -6.11565 62.6867 -4.59147 9.76076 30.453 0.745534 2.35117 -177.17 2.11676 79.667 67.7199 68.3373 -66.9092 97.7579 -9.75239 -69.0826 79.8328 -42.2596 -57.9004 0.159213 7.29804 -89.7884 12.277 0.416736 0.375528 0.606049 0.432875 0.356813 -21.929 0.284631 0.483419 -1.91631 0.284626 0.483413 95.1286 -43.7794 -93.8406 6.07883 -32.2321 -64.4685 -5.89647 -6.15168 -109.445 -12.4383 -2.0068 9.13466 -110.089 -60.5269 54.5447 23.199 -44.1015 -19.0333 5.92977 1.52656 -64.6096 20.7092 2.5863 -7.22496 -15.9824 15.9696 12.7132 -5.47714 15.9543 14.2067 
64.7227 88.3333 4.70762 -95.1112 -41.2122 -97.1886 -172.347 23.3664 100.796 -34.7241 15.304 -6.18585 62.6197 -4.68479 10.0844 30.3667 0.695859 2.24411 -177.279 2.29992 79.6269 67.0087 68.2891 -66.4432 97.7379 -9.57243 -69.0347 79.7879 -42.289 -58.0921 0.17287 7.29661 -89.7808 12.2926 0.447517 0.386697 0.621642 0.464084 0.366622 -21.9134 0.310615 0.503311 -1.90074 0.3106 0.503315 95.1641 -43.8784 -93.7655 5.77004 -32.3956 -64.5454 -6.13042 -5.98247 -109.429 -12.9013 -2.1658 9.38768 -109.88 -60.4338 54.7703 23.4105 -43.8344 -18.8494 5.83843 1.45972 -64.8514 20.2268 2.54455 -7.01558 -15.7573 15.9943 12.694 -5.71727 15.9237 14.1135 
64.6692 88.3309 4.79471 -95.1817 -41.0502 -97.2356 -172.242 23.2832 100.814 -34.8189 14.9294 -6.25146 62.6694 -4.68081 10.1269 30.4571 0.721827 2.39863 -177.376 2.29137 79.5803 66.199 68.2506 -65.7254 97.7928 -9.45977 -69.0759 79.8554 -42.3598 -58.0661 0.190917 7.29384 -89.7875 12.2853 0.480222 0.370122 0.614422 0.496048 0.348615 -21.9207 0.346787 0.497334 -1.90809 0.346792 0.497336 95.1679 -43.9816 -93.7432 5.61461 -32.2659 -64.535 -6.04148 -6.09513 -109.388 -13.1331 -2.24702 9.46401 -109.633 -60.2123 54.9917 23.3624 -43.6103 -18.6497 5.96006 1.37449 -64.7106 20.0958 2.54037 -7.3924 -15.9371 15.875 12.7499 -5.52267 15.8473 14.2635 
64.6056 88.2925 4.86121 -95.1626 -40.9345 -96.9854 -172.19 23.4991 101.06 -35.3471 14.8722 -6.17733 62.7527 -4.55394 9.89027 30.6103 0.849911 2.52446 -177.219 2.07722 79.743 66.5299 68.3621 -65.673 97.7981 -9.5857 -69.055 79.9048 -42.3134 -57.824 0.164932 7.29191 -89.8343 12.2895 0.406452 0.285046 0.618615 0.418621 0.266875 -21.9166 0.301985 0.394025 -1.90396 0.302009 0.394028 95.1121 -43.753 -93.8726 5.44746 -32.3693 -64.8414 -6.26876 -5.98899 -109.257 -13.1748 -2.26468 9.26341 -109.342 -60.1309 55.3283 24.757 -43.5439 -16.8131 5.60536 1.99225 -64.7183 21.7723 2.67082 -7.19296 -15.8832 15.9665 13.5439 -5.32298 15.9595 13.7706 
64.5982 88.1989 4.93823 -95.141 -40.8305 -96.6125 -172.075 23.9245 101.355 -36.1322 15.1186 -6.04961 62.8469 -4.28017 9.93842 30.726 0.897808 2.69986 -176.982 1.95223 80.0685 66.9838 68.4079 -65.9791 97.7544 -9.58906 -69.1008 79.9174 -42.3736 -57.9262 0.168395 7.27053 -89.8463 12.3323 0.407637 0.26078 0.661416 0.418728 0.242586 -21.8739 0.310432 0.37124 -1.86122 0.310417 0.37123 95.0911 -44.6103 -93.7724 4.82141 -32.4687 -64.7866 -6.46671 -5.72146 -109.423 -13.1384 -2.25344 9.15178 -108.302 -59.5362 56.415 24.985 -42.5977 -15.9405 5.816 0.844801 -64.0274 21.098 2.61561 -7.03035 -15.3504 16.2265 12.6108 -5.94138 16.0764 14.2828 
64.5884 88.0853 5.00357 -94.9092 -40.6685 -95.9683 -172.194 24.4291 101.644 -36.8822 16.1722 -5.60146 62.8904 -3.89279 10.533 30.9265 0.776425 3.33981 -176.362 2.22302 80.747 68.1086 68.1757 -67.5162 97.5559 -9.52477 -69.2154 79.8172 -42.3553 -58.1618 0.185123 7.23795 -89.913 12.3978 0.409299 0.127158 0.72689 0.414507 0.109012 -21.8086 0.35215 0.244294 -1.79597 0.352167 0.244289 95.039 -44.7458 -93.8372 4.93843 -32.1024 -64.516 -6.75229 -5.86156 -109.569 -12.7008 -2.09902 9.15403 -107.305 -58.9716 57.4735 25.3767 -39.8112 -14.4176 5.53026 -2.14461 -62.2656 20.9505 2.60506 -7.17903 -15.4238 16.2516 12.7055 -5.71901 16.1373 14.2044 
64.6433 87.9218 5.23281 -94.7557 -41.1103 -95.5567 -172.903 25.0873 101.423 -38.1069 16.7328 -4.70882 63.0622 -3.59265 11.0554 30.9878 0.739992 3.53458 -176.049 2.09258 81.0188 70.4572 68.1789 -69.8294 97.2987 -9.47231 -69.2141 80.2843 -42.8066 -57.9003 0.145234 7.19881 -89.9699 12.4762 0.3029 0.0252223 0.805342 0.303697 0.0118622 -21.7301 0.2813 0.115086 -1.71742 0.281316 0.115087 95.0829 -45.2762 -93.6827 4.55583 -32.1478 -64.3536 -6.33197 -5.73447 -109.614 -12.5066 -2.03154 9.10285 -106.344 -58.4249 58.5079 25.8431 -34.7814 -11.2815 6.0061 -6.30318 -59.7768 19.1755 2.47294 -7.57068 -15.4924 16.1462 12.6642 -5.48263 16.0613 14.6776 
64.8233 87.8553 5.56118 -94.3043 -41.6423 -95.2548 -173.886 25.7335 100.797 -38.9895 18.2168 -3.9011 62.882 -4.10507 12.1976 30.9827 0.604415 3.74281 -175.786 1.8356 80.6081 73.0136 68.6402 -71.6764 97.2737 -9.80806 -69.0353 80.4319 -42.9332 -57.7846 0.123793 7.13761 -90.0421 12.5988 0.225917 -0.110393 0.927854 0.22083 -0.120236 -21.6074 0.248625 -0.0373931 -1.5948 0.248651 -0.0373928 95.1383 -45.3157 -93.5855 4.3694 -32.7955 -63.9711 -6.02343 -5.30019 -109.494 -13.0289 -2.22004 8.81578 -107.59 -59.2072 57.1994 27.3622 -26.647 -5.44779 5.10771 -13.2078 -57.8299 16.6684 2.25499 -7.02576 -15.5561 16.0725 14.257 -5.14226 16.0396 13.5653 
65.0202 87.8591 5.9817 -94.1828 -42.9792 -95.4175 -174.121 26.4184 100.267 -39.539 18.5002 -3.9536 62.8199 -4.14774 11.1533 31.0183 0.923316 3.30342 -175.243 1.36676 80.2324 77.9536 68.7991 -76.6305 97.2124 -10.2042 -69.1411 80.2477 -43.1132 -58.6821 0.116312 7.11792 -90.0924 12.6382 0.187145 -0.206556 0.967241 0.177877 -0.214593 -21.568 0.24054 -0.140766 -1.55531 0.240568 -0.140763 95.322 -44.5185 -93.4041 4.09585 -33.4158 -64.3016 -6.57612 -4.64794 -109.473 -14.5531 -2.75255 8.86184 -109.207 -60.2908 55.567 24.7033 -18.432 -0.450713 5.18797 -20.1467 -54.6665 15.3648 2.11974 -6.53416 -15.3765 15.6738 15.9913 -4.5128 15.6787 12.0561 
65.0418 87.6732 6.27859 -92.9921 -45.8465 -94.1305 -173.968 29.0703 100.799 -40.9134 17.2711 -4.50383 63.2025 -3.54281 7.72488 31.3785 2.09783 2.14508 -173.073 1.0092 80.8169 90.5712 68.7059 -89.8386 96.975 -10.092 -69.8927 80.9788 -43.7177 -58.0617 0.142085 7.00432 -90.1485 12.8654 0.211056 -0.322309 1.19447 0.196671 -0.331301 -21.3406 0.298178 -0.243977 -1.32797 0.298162 -0.24398 95.0983 -44.5776 -93.7658 4.18593 -32.6353 -64.3652 -7.9847 -4.61767 -109.293 -15.756 -3.17041 8.61512 -109.606 -60.8961 55.3098 18.0012 -13.8766 3.65433 7.3867 -21.7321 -51.6561 15.0498 2.07702 -6.28038 -15.1908 14.9748 16.2765 -3.63453 15.0274 11.2274 
64.8805 87.3058 6.60424 -91.474 -50.7038 -92.451 -173.652 32.9481 101.625 -43.2957 20.3413 -5.59416 63.402 -2.80976 4.25286 32.8792 3.60144 2.97799 -170.162 -0.662713 82.2527 108.179 65.1992 -106.545 95.5722 -10.9284 -70.6323 80.3797 -43.2191 -58.5602 0.293451 6.80418 -90.1425 13.2663 0.513506 -0.349641 1.59543 0.497613 -0.371913 -20.9404 0.594843 -0.179151 -0.927758 0.594839 -0.179148 95.2333 -45.0093 -93.4762 5.11797 -30.2832 -63.6406 -10.8084 -4.0351 -108.885 -16.0606 -3.2579 7.31151 -112.517 -62.258 52.2405 11.4727 -13.5949 7.72878 8.51981 -20.2508 -50.6678 15.696 2.13976 -6.38337 -14.6726 13.2979 14.4253 -3.28812 13.3007 9.43532 
64.7444 86.475 7.06628 -91.394 -57.36 -90.9298 -173.916 37.8394 102.831 -49.1717 23.6569 -5.29541 63.8893 -1.20538 -0.774946 36.4241 5.84248 7.77804 -166.253 -4.63163 85.9977 125.447 57.5246 -120.924 93.2643 -12.5195 -71.6458 79.9785 -42.8651 -58.8641 0.537386 6.68112 -90.1152 13.5137 1.01021 -0.36086 1.84309 0.993357 -0.404988 -20.6952 1.07195 -0.0405313 -0.682549 1.07196 -0.0405497 96.1335 -44.1361 -92.109 8.65776 -26.1994 -63.1007 -12.112 -4.48298 -109.138 -17.4276 -3.74343 8.34721 -112.9 -62.5816 51.907 3.94938 -15.8561 11.2205 7.86859 -18.5428 -52.0145 16.7268 2.16658 -5.03792 -12.7302 11.2391 10.1023 -3.93434 11.0266 7.26644 
64.5264 85.0576 7.96922 -93.3991 -64.5001 -90.8374 -172.757 42.6238 103.632 -56.5216 24.3374 -5.16823 64.7323 -0.301882 11.202 34.231 2.49838 8.17535 -161.027 -9.89662 92.1741 138.649 46.2206 -129.283 90.9126 -14.4919 -71.8897 79.9593 -42.8224 -58.8215 0.91792 6.60452 -90.0852 13.6697 1.77896 -0.403716 1.9999 1.75948 -0.481651 -20.545 1.81802 0.14977 -0.532378 1.81802 0.149777 96.4707 -43.0279 -91.6899 12.1599 -19.2272 -62.4423 -12.3866 -5.633 -108.178 -18.9398 -4.28843 8.91279 -111.636 -62.5238 53.4479 -1.37994 -20.4306 15.6196 6.65879 -14.4662 -54.8435 19.6163 2.434 -4.17935 -10.2112 8.3943 4.03136 -5.61715 8.13093 6.69195 
64.6183 84.3684 9.28124 -97.0153 -70.6463 -92.7692 -171.156 45.0456 103.873 -62.3342 20.7343 -4.90944 63.3596 -4.1518 19.3571 29.9558 -5.15318 9.9391 -158.211 -13.7337 96.3002 148.347 38.6999 -135.311 91.5699 -15.6648 -70.5352 79.1379 -42.2309 -59.7829 1.4365 6.44261 -90.0529 13.9993 2.82127 -0.487933 2.33128 2.79706 -0.611735 -20.2283 2.83737 0.383237 -0.21565 2.83737 0.383228 97.7793 -37.7156 -90.0523 18.1321 -12.5803 -62.2197 -11.7965 -7.87017 -104.192 -20.4345 -4.81141 8.90236 -108.478 -61.9116 57.1459 -3.45663 -25.1687 22.9949 5.09163 -9.09305 -59.7621 23.522 2.85156 -4.01557 -8.97987 5.0829 0.280455 -6.51031 5.00033 3.65476 
